<?xml version="1.0" encoding="utf-8"?>
<!-- Generator: Adobe Illustrator 27.3.1, SVG Export Plug-In . SVG Version: 6.00 Build 0)  -->
<svg version="1.1" id="Layer_1" xmlns="http://www.w3.org/2000/svg" xmlns:xlink="http://www.w3.org/1999/xlink" x="0px" y="0px"
	 viewBox="0 0 1366 768" style="enable-background:new 0 0 1366 768;" xml:space="preserve">
<style type="text/css">
	.st0{fill:#22A4F2;}
	.st1{fill:#FEF1E9;}
	.st2{fill:#0A3149;}
	.st3{fill:#0A3149;stroke:#FEF1E9;stroke-width:0.5;stroke-miterlimit:10;}
	.st4{fill:#F27022;}
</style>
<g>
	<rect x="285" y="354" class="st0" width="266" height="187"/>
	<path class="st1" d="M550,355v185H286V355H550 M552,353H284v189h268V353L552,353z"/>
</g>
<g>
	<polygon class="st2" points="286,352 384.5,220 650,220 551.5,352 	"/>
	<path class="st1" d="M648,221l-97,130H288l97-130H648 M652,219H384L284,353h268L652,219L652,219z"/>
</g>
<g>
	<polygon class="st2" points="554,352 652,220.7 754,352 	"/>
	<path class="st1" d="M652,222.3L751.9,351H556L652,222.3 M652,219L552,353h204L652,219L652,219z"/>
</g>
<g>
	<rect x="553" y="354" class="st0" width="202" height="187"/>
	<path class="st1" d="M754,355v185H554V355H754 M756,353H552v189h204V353L756,353z"/>
</g>
<path class="st3" d="M396,520.5h-59v-78c0-16.3,13.2-29.5,29.5-29.5h0c16.3,0,29.5,13.2,29.5,29.5V520.5z"/>
<path class="st4" d="M505,448h-59v-23.5c0-16.3,13.2-29.5,29.5-29.5h0c16.3,0,29.5,13.2,29.5,29.5V448z"/>
<path class="st1" d="M684,448h-59v-22.5c0-16.3,13.2-29.5,29.5-29.5l0,0c16.3,0,29.5,13.2,29.5,29.5V448z"/>
</svg>
